<svg version="1.0" xmlns="http://www.w3.org/2000/svg"
 width="583" height="512" viewBox="0 0 583 512"
 preserveAspectRatio="xMidYMid meet">
<g transform="translate(0,512) scale(0.1,-0.1)" fill="#18100a" stroke="none">
<path d="M2846 4570 c-180 -21 -402 -78 -571 -146 -730 -298 -1236 -953 -1340
-1738 -33 -246 -10 -594 55 -827 16 -58 17 -76 7 -85 -6 -7 -95 -56 -197 -110
-203 -107 -195 -102 -189 -108 8 -9 153 45 282 104 217 99 478 251 737 429
108 74 143 92 260 133 74 27 193 76 263 109 154 73 164 71 123 -27 -15 -37
-25 -68 -23 -71 8 -7 77 94 103 151 49 106 18 111 -150 22 -118 -62 -304 -142
-312 -134 -2 3 60 58 138 124 79 65 234 208 345 317 230 226 227 224 342 188
l65 -20 79 21 c125 32 123 32 315 -151 351 -335 654 -561 965 -717 124 -63
238 -107 249 -96 12 12 2 19 -167 112 -82 44 -226 132 -320 195 -263 176 -427
311 -755 625 -114 110 -125 114 -225 105 -108 -11 -188 -11 -257 -1 -108 16
-112 14 -312 -186 -329 -328 -627 -566 -1027 -820 -211 -134 -257 -160 -263
-150 -2 4 -14 43 -25 87 -78 306 -80 689 -5 994 199 809 822 1409 1644 1583
134 28 163 31 385 34 251 4 326 -3 515 -47 216 -49 489 -164 665 -279 505
-330 839 -839 939 -1430 18 -104 24 -125 40 -128 33 -7 37 11 26 103 -23 187
-112 470 -205 655 -163 324 -421 616 -725 822 -252 171 -530 282 -856 343
-104 20 -491 29 -618 15z"/>
<path d="M4085 3581 c-130 -32 -212 -164 -185 -298 20 -96 111 -181 211 -197
99 -16 215 43 261 133 100 193 -74 413 -287 362z"/>
<path d="M2970 2465 c0 -19 46 -90 91 -139 44 -49 202 -166 224 -166 4 0 -59
69 -140 153 -129 134 -175 174 -175 152z"/>
<path d="M2644 2417 c-16 -12 -67 -62 -114 -111 -47 -49 -111 -110 -143 -137
-32 -27 -52 -49 -45 -49 29 0 140 76 232 161 54 49 104 89 112 89 8 0 55 -38
105 -85 83 -77 216 -171 228 -160 2 3 -18 24 -45 47 -26 24 -73 70 -104 103
-163 178 -172 183 -226 142z"/>
<path d="M5379 2392 c-68 -36 -110 -92 -116 -158 -4 -49 -60 -184 -75 -184 -5
0 -5 24 -2 53 7 59 -11 108 -46 127 -15 8 -21 6 -30 -9 -24 -46 -4 -129 37
-154 38 -23 -11 -150 -106 -277 -63 -84 -150 -184 -182 -208 l-24 -20 1 104
c2 114 6 134 28 134 36 0 47 79 20 132 -15 29 -15 32 2 41 47 26 84 90 70 119
-38 76 -87 103 -147 81 -29 -11 -29 -11 -29 23 0 50 -22 95 -65 132 -34 30
-41 33 -79 27 -22 -4 -49 -14 -59 -23 -26 -23 -40 -88 -29 -134 l10 -38 -37 0
c-41 0 -80 -18 -91 -40 -34 -69 -34 -69 -17 -106 12 -25 30 -41 61 -55 44 -19
44 -20 30 -47 -7 -15 -14 -41 -14 -57 0 -33 24 -75 42 -75 6 0 19 -7 29 -16
24 -22 79 -4 113 37 l25 29 25 -24 c13 -14 36 -28 50 -32 24 -6 26 -10 26 -68
0 -73 -20 -158 -55 -225 -39 -77 -234 -234 -499 -400 -71 -45 -132 -81 -136
-81 -4 0 6 36 21 81 16 44 29 91 29 105 0 19 5 24 25 24 14 0 28 7 31 15 4 8
14 15 25 15 10 0 23 10 30 21 11 22 8 87 -6 122 -5 12 -2 17 10 17 9 0 32 15
51 34 33 33 44 69 24 81 -5 3 -10 15 -10 25 0 29 -44 53 -95 52 -44 -1 -45 -1
-45 31 0 18 -9 47 -20 65 -19 31 -47 40 -110 33 -24 -3 -59 -48 -65 -84 -7
-34 -7 -34 -46 -23 -31 8 -45 7 -74 -7 -21 -10 -35 -24 -35 -35 0 -10 -5 -23
-11 -29 -20 -20 -1 -80 30 -103 16 -11 34 -20 40 -20 14 0 14 1 -9 -45 -11
-22 -20 -50 -20 -63 0 -27 50 -79 85 -88 26 -6 94 22 102 42 3 10 13 5 34 -15
35 -35 33 -61 -16 -166 -63 -139 -174 -225 -445 -345 -122 -55 -288 -115 -295
-108 -3 3 3 26 14 51 11 26 27 81 36 123 20 97 41 128 99 143 24 6 58 22 74
36 34 29 69 95 74 140 3 29 2 30 -32 26 -79 -7 -154 -71 -165 -139 -7 -41 -25
-82 -35 -82 -4 0 -10 22 -14 49 -5 41 -2 57 21 102 37 70 38 144 4 217 l-25
52 -28 -27 c-62 -60 -73 -183 -22 -258 20 -31 24 -47 24 -116 0 -92 -9 -98
-47 -29 -13 25 -35 55 -49 67 -32 29 -98 46 -148 39 -71 -11 -74 -18 -25 -71
56 -61 86 -75 158 -75 58 0 61 -2 77 -31 19 -39 13 -85 -23 -150 -44 -81 -86
-113 -198 -149 -133 -42 -208 -83 -275 -150 -61 -61 -107 -138 -97 -163 7 -19
57 -23 87 -7 10 5 29 29 43 53 56 96 132 143 352 217 77 27 196 69 265 95 120
46 128 47 205 42 106 -7 199 -37 241 -78 19 -18 34 -39 34 -46 0 -43 57 -116
112 -144 42 -21 149 -41 161 -29 13 12 -29 100 -66 139 -39 41 -100 70 -147
71 -35 1 -89 34 -76 47 9 9 115 8 187 -2 46 -6 64 -4 103 14 57 25 126 78 126
96 0 20 -67 39 -135 39 -70 0 -130 -26 -167 -74 -37 -47 -108 -52 -238 -14
-55 16 -100 32 -100 36 0 3 63 40 139 81 77 42 212 121 301 176 88 56 177 108
198 117 45 19 168 22 231 4 l44 -12 -32 -19 c-17 -10 -31 -22 -32 -26 0 -5 -2
-25 -4 -46 -5 -49 16 -82 61 -97 33 -11 33 -13 28 -54 -8 -53 6 -80 51 -102
43 -20 79 -12 114 25 26 28 26 28 56 9 45 -27 115 -22 115 8 0 8 6 14 14 14
34 0 27 91 -11 132 -13 15 -13 18 7 28 39 21 64 120 29 120 -5 0 -9 6 -9 14 0
32 -46 46 -107 32 -29 -7 -32 -5 -38 23 -3 17 -20 42 -37 56 -32 27 -43 30
-53 15 -3 -6 -17 -7 -30 -4 -20 5 -28 0 -45 -28 -11 -18 -20 -44 -20 -57 0
-18 -4 -22 -17 -16 -22 8 -123 32 -181 42 l-43 8 97 75 c188 145 380 345 511
532 53 76 105 126 155 148 20 10 31 9 58 -5 53 -28 126 -24 189 11 30 16 56
34 58 40 6 19 -62 54 -115 61 -51 6 -120 -16 -153 -49 -17 -17 -99 -61 -104
-56 -8 8 120 258 132 258 26 0 91 39 118 72 36 42 52 82 61 146 6 48 5 52 -14
52 -11 0 -44 -13 -73 -28z m-691 -95 c7 -5 22 -27 33 -49 21 -42 22 -81 3
-163 l-7 -30 33 32 c18 17 45 37 61 43 38 16 79 6 79 -20 0 -10 7 -23 16 -28
13 -7 14 -13 5 -30 -17 -32 -49 -46 -116 -52 l-60 -6 35 -15 c48 -22 90 -73
90 -110 0 -21 -4 -29 -14 -27 -8 2 -21 -5 -29 -16 -13 -17 -16 -17 -44 -3 -35
19 -58 51 -71 98 l-9 34 -12 -52 c-17 -70 -89 -133 -103 -91 -3 7 -13 13 -24
13 -32 0 -24 69 12 106 35 37 81 63 89 50 3 -5 1 -12 -5 -16 -5 -3 -10 -13
-10 -22 0 -11 7 -8 26 12 l25 27 23 -21 c29 -27 40 -27 24 2 -14 25 -19 57 -9
57 4 0 16 7 27 15 18 15 18 15 -9 9 -33 -8 -57 10 -57 42 0 13 -4 24 -10 24
-5 0 -10 -13 -10 -29 0 -35 -19 -52 -48 -44 -12 3 -22 1 -22 -5 0 -5 10 -12
22 -16 33 -8 11 -25 -43 -32 -34 -5 -56 -2 -83 11 -44 21 -65 52 -41 61 10 4
13 13 10 25 -6 19 20 39 52 39 20 0 69 -23 115 -54 l28 -18 -35 67 c-36 68
-44 120 -26 167 7 18 16 23 42 23 19 0 40 -4 47 -8z m-538 -637 c16 -25 11
-84 -10 -125 -11 -22 -20 -41 -20 -43 0 -1 15 8 33 22 48 37 88 49 120 37 19
-7 25 -15 20 -27 -3 -9 0 -20 8 -25 11 -6 11 -13 3 -26 -19 -31 -56 -44 -111
-40 -29 2 -53 3 -53 1 0 -1 16 -12 35 -24 58 -36 91 -130 46 -130 -10 0 -21
-7 -25 -15 -8 -23 -25 -18 -62 19 -25 25 -34 43 -34 68 0 54 -12 53 -34 -5
-16 -40 -29 -56 -56 -70 -29 -14 -37 -15 -45 -4 -5 7 -18 16 -27 20 -42 15 0
98 65 127 l42 20 -37 0 c-20 0 -49 5 -65 11 -54 20 -97 79 -57 79 11 0 14 6 9
20 -15 49 102 27 145 -27 26 -33 31 -28 14 12 -18 45 -18 95 1 122 12 16 24
21 51 20 19 -2 39 -9 44 -17z m690 -535 c9 -16 11 -45 7 -86 l-5 -63 25 33
c24 30 76 61 103 61 6 0 15 -11 20 -25 5 -14 14 -25 19 -25 16 0 -1 -40 -26
-60 -13 -10 -45 -22 -70 -26 l-46 -7 39 -13 c22 -7 51 -27 67 -44 30 -33 36
-70 12 -70 -9 0 -18 -7 -21 -15 -15 -38 -86 3 -112 64 l-15 36 -8 -44 c-13
-71 -55 -119 -82 -92 -6 6 -19 11 -29 11 -14 0 -18 8 -18 35 0 28 9 45 41 80
l41 45 -32 -11 c-64 -23 -160 10 -131 44 6 8 9 21 5 30 -15 41 80 45 130 6 31
-24 33 -12 6 33 -38 63 -23 122 33 125 27 1 37 -4 47 -22z"/>
<path d="M4090 1516 c0 -28 -21 -39 -57 -30 -18 5 -24 3 -19 -5 4 -6 13 -11
20 -11 21 0 27 -42 9 -62 -9 -10 -11 -18 -5 -18 6 0 14 5 17 10 10 15 46 12
67 -7 19 -17 24 -8 9 16 -12 19 3 48 29 56 11 4 18 11 15 16 -4 5 -13 5 -23 0
-25 -13 -56 12 -47 38 4 12 2 21 -4 21 -6 0 -11 -11 -11 -24z"/>
<path d="M4803 1000 c7 -29 -14 -51 -42 -43 -12 3 -21 1 -21 -6 0 -6 9 -11 20
-11 24 0 42 -31 29 -51 -11 -18 -11 -29 0 -29 5 0 13 9 16 20 7 21 49 28 60
10 3 -5 11 -10 17 -10 6 0 4 8 -5 18 -21 23 -22 51 -2 58 8 4 15 11 15 16 0 6
-6 6 -14 -1 -18 -15 -56 2 -56 24 0 7 -5 17 -12 21 -8 5 -9 0 -5 -16z"/>
<path d="M3280 2372 c0 -13 101 -107 150 -139 25 -17 65 -41 90 -53 56 -28
180 -71 180 -62 0 4 -55 40 -123 80 -67 39 -161 97 -209 127 -49 30 -88 51
-88 47z"/>
<path d="M1177 1428 c-6 -18 30 -87 110 -209 276 -417 728 -741 1228 -878 71
-20 95 -16 95 15 0 17 -5 19 -176 74 -312 99 -603 278 -844 520 -129 128 -217
240 -305 390 -46 76 -65 99 -82 100 -12 0 -23 -6 -26 -12z"/>
</g>
</svg>
